<svg width="110" height="30" viewBox="0 0 110 30" fill="none" xmlns="http://www.w3.org/2000/svg">
<path d="M10.6532 14.7373V19.2687C10.6554 19.5311 10.6037 19.7912 10.5013 20.0333C10.3989 20.2754 10.248 20.4945 10.0576 20.6773C9.86713 20.8602 9.6412 21.003 9.3934 21.0971C9.14559 21.1913 8.88106 21.2348 8.61577 21.225H6.68748C6.42452 21.2298 6.16323 21.1828 5.91889 21.0866C5.67454 20.9904 5.45204 20.847 5.26438 20.6649C5.07672 20.4828 4.92767 20.2655 4.82594 20.0257C4.72421 19.786 4.67183 19.5286 4.67188 19.2687V4.89783C4.68699 4.22293 4.96742 3.58037 5.45372 3.1064C5.94002 2.63242 6.59396 2.36429 7.27688 2.35884H14.4079C15.7449 2.3624 17.0361 2.84089 18.0459 3.70704C19.0558 4.57319 19.717 5.7693 19.909 7.07719C20.0928 8.32848 19.8193 9.60356 19.1377 10.6735C18.3518 11.7308 17.3986 12.7234 16.5545 13.8095C16.1403 14.4168 15.9408 15.1424 15.9868 15.8734C16.0329 16.6044 16.322 17.2999 16.8092 17.8517L22.7905 24.361C22.9555 24.5632 23.0325 24.8219 23.0045 25.0803C22.9765 25.3386 22.8459 25.5753 22.6413 25.7384C22.54 25.8192 22.4237 25.8794 22.2988 25.9157C22.174 25.952 22.0431 25.9636 21.9137 25.9499C21.6524 25.9223 21.4129 25.7932 21.2479 25.591L15.4266 19.2111C14.5862 18.3015 14.0935 17.1302 14.0338 15.8997C13.974 14.6692 14.3508 13.4567 15.0992 12.4716C15.9796 11.3999 17.0202 10.5296 17.7406 9.2062C17.9586 8.73558 18.0585 8.21989 18.0316 7.70295C17.9755 6.77701 17.5595 5.90832 16.8707 5.27837C16.1819 4.64842 15.2734 4.30592 14.3351 4.32242H7.40786C7.21487 4.32242 7.02979 4.3982 6.89333 4.53309C6.75687 4.66798 6.68021 4.85092 6.68021 5.04168V19.2543H8.6667V14.7229L9.30704 13.9246V13.306H9.99831V13.9246L10.6532 14.7373Z" fill="#ED1D24"/>
<path d="M9.62763 7.05565C10.5809 8.2712 12.1017 9.78884 12.1017 10.8462C12.0693 11.3835 11.8348 11.8895 11.4444 12.2647C11.054 12.64 10.5358 12.8575 9.99146 12.8745V11.3496H9.26381V12.8745C8.73242 12.8323 8.23331 12.6054 7.85502 12.2341C7.47673 11.8628 7.24371 11.3711 7.19727 10.8462C7.19727 9.83199 8.69624 8.21366 9.59853 7.05565" fill="#ED1D24"/>
<path d="M41.4104 8.09135C40.4141 8.09559 39.4383 8.37188 38.5908 8.88974C37.7433 9.4076 37.0571 10.1469 36.6079 11.0259C36.2489 11.7605 36.0625 12.5657 36.0625 13.3815C36.0625 14.1973 36.2489 15.0025 36.6079 15.7371C37.0331 16.5829 37.6793 17.3011 38.4795 17.8173C39.2798 18.3334 40.205 18.6289 41.1595 18.6731C42.114 18.7172 43.0631 18.5085 43.9087 18.0685C44.7542 17.6285 45.4654 16.9731 45.9688 16.1703C46.4721 15.3674 46.7493 14.4462 46.7717 13.5019C46.794 12.5577 46.5607 11.6246 46.0959 10.7994C45.6311 9.97414 44.9517 9.28663 44.1279 8.808C43.3041 8.32936 42.3659 8.07698 41.4104 8.07697V8.09135ZM41.4104 15.212C40.9675 15.1565 40.5604 14.9433 40.2652 14.6123C39.9701 14.2812 39.8073 13.8551 39.8073 13.4139C39.8073 12.9726 39.9701 12.5465 40.2652 12.2155C40.5604 11.8845 40.9675 11.6712 41.4104 11.6157C41.6686 11.5834 41.9308 11.6057 42.1796 11.6813C42.4284 11.7569 42.6581 11.8839 42.8533 12.054C43.0486 12.2241 43.205 12.4334 43.3121 12.6678C43.4192 12.9023 43.4747 13.1566 43.4747 13.4139C43.4747 13.6711 43.4192 13.9255 43.3121 14.1599C43.205 14.3944 43.0486 14.6036 42.8533 14.7737C42.6581 14.9438 42.4284 15.0709 42.1796 15.1465C41.9308 15.222 41.6686 15.2444 41.4104 15.212Z" fill="#31AEE8"/>
<path d="M37.1612 8.79616C36.9844 8.69081 36.7995 8.59942 36.6081 8.52284C35.1528 7.94024 33.6975 8.43653 32.7225 10.098V8.41495H28.7422V18.5637H32.8171L32.868 14.428C32.868 12.2198 33.6393 10.6087 35.9678 11.515L36.6081 10.0764L37.1612 8.79616Z" fill="#31AEE8"/>
<path d="M57.8049 10.0118C55.9858 7.23544 52.8933 8.06978 51.2051 9.81039V8.37187H47.334V18.5278H50.0118H51.1833V13.0902C51.1754 12.8761 51.2115 12.6626 51.2892 12.4626C51.367 12.2625 51.4848 12.0801 51.6357 11.9262C51.7866 11.7724 51.9674 11.6503 52.1673 11.5673C52.3671 11.4842 52.5819 11.442 52.7987 11.4431C52.9482 11.4313 53.0986 11.4516 53.2395 11.5026C53.3804 11.5537 53.5084 11.6342 53.6149 11.7387C53.7213 11.8433 53.8036 11.9693 53.8562 12.1082C53.9087 12.2472 53.9302 12.3957 53.9193 12.5436V18.5638H58.0232V13.1981C57.9946 12.765 58.1371 12.3377 58.4208 12.0063C58.7045 11.675 59.1071 11.4653 59.544 11.4215C59.723 11.4025 59.904 11.4239 60.0733 11.4842C60.2427 11.5445 60.3959 11.6421 60.5214 11.7697C60.6469 11.8972 60.7414 12.0513 60.7978 12.2203C60.8541 12.3892 60.8708 12.5687 60.8465 12.745V18.5638H64.936V12.3638C64.936 7.9619 60.3517 6.99809 57.8049 10.0118Z" fill="#31AEE8"/>
<path d="M105.053 15.6436C104.282 15.6436 104.209 15.3343 104.187 14.5791V6.32916H100.098V14.6654C100.098 17.8589 101.917 18.5638 103.692 18.5638H105.053H109.965V15.6867L105.053 15.6436Z" fill="#31AEE8"/>
<path d="M76.6881 12.148C76.6035 12.137 76.5179 12.137 76.4334 12.148H69.6298C69.4767 12.137 69.3338 12.068 69.2308 11.9555C69.1278 11.843 69.0726 11.6955 69.0768 11.5438C69.0768 11.4654 69.0924 11.3878 69.1228 11.3154C69.1531 11.2429 69.1976 11.1771 69.2537 11.1217C69.3098 11.0663 69.3763 11.0223 69.4496 10.9923C69.5229 10.9623 69.6014 10.9468 69.6807 10.9468H79.7879V8.34312H68.873C68.443 8.34785 68.0182 8.43624 67.6227 8.60326C67.2273 8.77029 66.869 9.01266 66.5683 9.31655C66.2676 9.62045 66.0304 9.9799 65.8703 10.3744C65.7102 10.7689 65.6302 11.1907 65.635 11.6158C65.6397 12.0408 65.7292 12.4608 65.8981 12.8516C66.0671 13.2425 66.3123 13.5967 66.6198 13.8939C66.9272 14.1911 67.2909 14.4256 67.69 14.5839C68.0891 14.7421 68.5158 14.8212 68.9458 14.8165C69.0186 14.8165 69.055 14.8165 69.1277 14.8165H75.8585C76.0082 14.8327 76.1466 14.9029 76.2471 15.0138C76.3476 15.1246 76.4032 15.2682 76.4032 15.4171C76.4032 15.5659 76.3476 15.7095 76.2471 15.8203C76.1466 15.9312 76.0082 16.0014 75.8585 16.0176H65.7441V18.6429H76.659C77.089 18.6429 77.5148 18.5592 77.912 18.3966C78.3093 18.2339 78.6703 17.9955 78.9743 17.6949C79.2784 17.3944 79.5196 17.0376 79.6842 16.6449C79.8487 16.2522 79.9334 15.8313 79.9334 15.4063C79.9334 14.9812 79.8487 14.5603 79.6842 14.1676C79.5196 13.775 79.2784 13.4181 78.9743 13.1176C78.6703 12.817 78.3093 12.5786 77.912 12.416C77.5148 12.2533 77.089 12.1696 76.659 12.1696L76.6881 12.148Z" fill="#31AEE8"/>
<path d="M94.0868 8.19925C92.6806 8.20306 91.3332 8.75793 90.3402 9.74219C89.3471 10.7265 88.7895 12.0598 88.7895 13.4499C88.7542 14.1434 88.8676 14.8365 89.1224 15.4837C89.3771 16.1309 89.7674 16.7176 90.2676 17.2052C90.7678 17.6928 91.3666 18.0704 92.0248 18.3133C92.683 18.5561 93.3857 18.6586 94.0868 18.6141C94.749 18.5917 95.4009 18.4452 96.0078 18.1826V18.7076H99.406V13.4499C99.4041 12.0566 98.8428 10.7212 97.8455 9.73668C96.8482 8.7522 95.4963 8.19925 94.0868 8.19925ZM94.0868 15.2624C93.6056 15.2662 93.1425 15.0814 92.7988 14.7485C92.4551 14.4155 92.2589 13.9615 92.2531 13.4858C92.2459 13.1259 92.3473 12.772 92.5443 12.4692C92.7414 12.1665 93.0252 11.9285 93.3595 11.7858C93.6939 11.6431 94.0637 11.602 94.4217 11.6679C94.7798 11.7337 95.1099 11.9034 95.37 12.1554C95.6301 12.4074 95.8084 12.7303 95.8822 13.0828C95.9559 13.4354 95.9218 13.8016 95.7841 14.1349C95.6465 14.4682 95.4115 14.7534 95.1093 14.9542C94.807 15.155 94.451 15.2623 94.0868 15.2624Z" fill="#31AEE8"/>
<path d="M86.003 6.42268H82.0955V8.451H80.502V11.2633H82.0955V14.7589C82.0955 16.3341 82.372 17.636 84.0238 18.2905C84.6469 18.508 85.3064 18.6056 85.9666 18.5782H88.2369V15.9385H87.2473C86.4251 15.9385 86.003 15.5213 86.003 14.651V11.2273H88.2369V8.43661H86.003V6.42268Z" fill="#31AEE8"/>
<path d="M31.0133 24.6919C31.2675 24.545 31.5558 24.4657 31.8501 24.4617C32.1044 24.465 32.3541 24.5291 32.5778 24.6487C32.8192 24.7801 33.0222 24.9709 33.1672 25.2026L34.1277 24.6415C33.9327 24.2585 33.6226 23.9445 33.24 23.7425C32.8148 23.527 32.3424 23.4183 31.8647 23.426C31.3382 23.4154 30.8175 23.5366 30.3512 23.7784C29.9285 24.0038 29.5744 24.3365 29.3252 24.7422C29.0611 25.1755 28.9297 25.6752 28.9468 26.1808C28.936 26.6661 29.0615 27.1448 29.3095 27.5638C29.5574 27.9828 29.918 28.3257 30.3512 28.5543C30.8175 28.7961 31.3382 28.9174 31.8647 28.9068C32.3435 28.9159 32.8167 28.8045 33.24 28.5831C33.6331 28.3778 33.9513 28.0558 34.1495 27.6624L33.189 27.1014C33.0466 27.3388 32.8433 27.5348 32.5996 27.6696C32.3754 27.787 32.1257 27.8487 31.872 27.8494C31.5801 27.8546 31.2919 27.7853 31.0352 27.6481C30.7881 27.5137 30.5859 27.3113 30.453 27.0655C30.305 26.7941 30.2322 26.4889 30.242 26.1808C30.2315 25.8726 30.3043 25.5672 30.453 25.2961C30.5766 25.0452 30.7713 24.8353 31.0133 24.6919Z" fill="#31AEE8"/>
<path d="M39.6869 26.2814C39.5328 26.1669 39.3572 26.0838 39.1703 26.0369C39.2766 25.9948 39.3769 25.9392 39.4686 25.8715C39.6332 25.7556 39.7668 25.6018 39.8578 25.4235C39.9488 25.2451 39.9945 25.0475 39.9909 24.8478C39.9873 24.6481 39.9346 24.4523 39.8372 24.2772C39.7399 24.1022 39.6009 23.9532 39.4323 23.8431C38.9651 23.5828 38.4323 23.4605 37.8969 23.4907H35.2773V28.7773H38.0061C38.5747 28.8181 39.142 28.6823 39.6287 28.3889C39.7961 28.2684 39.9321 28.1103 40.0257 27.9278C40.1193 27.7453 40.1678 27.5434 40.1672 27.3387C40.1819 27.137 40.1457 26.9348 40.0619 26.7503C39.978 26.5657 39.8492 26.4047 39.6869 26.2814ZM36.4634 24.4042H37.7732C38.0255 24.3936 38.2763 24.4481 38.5009 24.5624C38.5819 24.6136 38.6475 24.6853 38.691 24.77C38.7345 24.8547 38.7543 24.9495 38.7483 25.0443C38.7527 25.1399 38.7322 25.2351 38.6889 25.3207C38.6456 25.4063 38.5809 25.4795 38.5009 25.5334C38.2824 25.665 38.0286 25.7278 37.7732 25.7132H36.4634V24.4042ZM38.6464 27.7343C38.4089 27.8562 38.142 27.9109 37.8751 27.8926H36.4198V26.5404H37.8751C38.1278 26.5252 38.3798 26.58 38.6027 26.6986C38.6838 26.7594 38.7483 26.8393 38.7902 26.931C38.8321 27.0227 38.8502 27.1233 38.8429 27.2237C38.8618 27.3158 38.8563 27.4112 38.827 27.5007C38.7976 27.5902 38.7455 27.6706 38.6755 27.7343H38.6464Z" fill="#31AEE8"/>
<path d="M42.1398 21.1171C42.0326 21.1135 41.9257 21.1313 41.8256 21.1696C41.7256 21.208 41.6344 21.266 41.5577 21.3402C41.4868 21.407 41.4302 21.4874 41.3914 21.5764C41.3527 21.6654 41.3325 21.7612 41.3321 21.8582C41.3305 21.9575 41.3497 22.0561 41.3885 22.1477C41.4274 22.2393 41.485 22.322 41.5577 22.3905C41.6344 22.4647 41.7256 22.5227 41.8256 22.561C41.9257 22.5994 42.0326 22.6172 42.1398 22.6135C42.2473 22.619 42.3547 22.6019 42.455 22.5635C42.5553 22.5251 42.6463 22.4661 42.7219 22.3905C42.7965 22.3204 42.8552 22.2353 42.8941 22.1411C42.933 22.0468 42.9512 21.9455 42.9475 21.8438C42.9471 21.7469 42.927 21.651 42.8882 21.562C42.8494 21.473 42.7929 21.3926 42.7219 21.3258C42.5616 21.1858 42.3536 21.1113 42.1398 21.1171Z" fill="#31AEE8"/>
<path d="M42.7652 23.4907H41.5137V28.8132H42.7652V23.4907Z" fill="#31AEE8"/>
<path d="M43.6895 24.548H45.5886V28.806H46.8475V24.548H48.7321V23.4907H43.6895V24.548Z" fill="#31AEE8"/>
<path d="M53.0616 21.1172C52.9551 21.1104 52.8484 21.1269 52.7491 21.1654C52.6497 21.2039 52.5602 21.2636 52.4868 21.3402C52.4145 21.4064 52.3566 21.4865 52.3166 21.5755C52.2766 21.6646 52.2552 21.7607 52.2539 21.8582C52.2532 21.958 52.2736 22.0569 52.3137 22.1486C52.3538 22.2402 52.4127 22.3226 52.4868 22.3905C52.6442 22.5347 52.8508 22.6147 53.0653 22.6147C53.2798 22.6147 53.4864 22.5347 53.6437 22.3905C53.7183 22.3204 53.777 22.2354 53.8159 22.1411C53.8548 22.0468 53.873 21.9455 53.8693 21.8438C53.8726 21.7463 53.8541 21.6494 53.8151 21.5598C53.7761 21.4703 53.7176 21.3904 53.6437 21.3258C53.4834 21.1859 53.2754 21.1113 53.0616 21.1172Z" fill="#31AEE8"/>
<path d="M53.6871 23.4907H52.4355V28.8132H53.6871V23.4907Z" fill="#31AEE8"/>
<path d="M59.3622 25.6485H56.6481V23.4907H55.3965V28.806H56.6481V26.7058H59.3622V28.806H60.6211V23.4907H59.3622V25.6485Z" fill="#31AEE8"/>
<path d="M63.9174 24.6918C64.1733 24.5428 64.4645 24.4633 64.7615 24.4617C65.0282 24.4588 65.2912 24.5234 65.5255 24.6493C65.7599 24.7752 65.9578 24.9582 66.1004 25.1809L67.0536 24.6199C66.85 24.2411 66.5321 23.9344 66.1441 23.7424C65.7161 23.5275 65.2415 23.4188 64.7615 23.4259C64.2372 23.4144 63.7187 23.5357 63.2553 23.7784C62.8291 24.0015 62.4721 24.3346 62.222 24.7422C61.9639 25.1776 61.8352 25.6762 61.8509 26.1807C61.8368 26.685 61.9653 27.1832 62.222 27.6192C62.4721 28.0268 62.8291 28.3599 63.2553 28.583C63.7187 28.8257 64.2372 28.9471 64.7615 28.9355C65.2423 28.9421 65.7173 28.8309 66.1441 28.6118C66.5354 28.4065 66.8512 28.0843 67.0463 27.6912L66.0931 27.1301C65.9548 27.3569 65.7578 27.543 65.5225 27.6695C65.2871 27.7959 65.0219 27.858 64.7542 27.8494C64.4623 27.8556 64.1738 27.7861 63.9174 27.648C63.6677 27.5148 63.4628 27.3123 63.328 27.0654C63.1834 26.7928 63.1108 26.4885 63.117 26.1807C63.0981 25.8651 63.1633 25.5501 63.3062 25.2672C63.448 25.02 63.6606 24.8197 63.9174 24.6918Z" fill="#31AEE8"/>
<path d="M67.3457 24.548H69.2376V28.806H70.4964V24.548H72.3811V23.4907H67.3457V24.548Z" fill="#31AEE8"/>
<path d="M75.3057 23.4188C74.8847 23.4167 74.4656 23.4749 74.0614 23.5914C73.6876 23.6889 73.3367 23.8575 73.0281 24.0877L73.5156 24.994C73.7332 24.8233 73.9795 24.6918 74.2433 24.6056C74.5252 24.5147 74.82 24.4686 75.1165 24.4689C75.4849 24.4371 75.8517 24.5451 76.1425 24.771C76.2575 24.8798 76.3471 25.0121 76.4049 25.1587C76.4627 25.3053 76.4874 25.4627 76.4772 25.6197V25.6988H75.0801C74.6339 25.6832 74.189 25.7541 73.7703 25.9074C73.4738 26.0173 73.2195 26.216 73.0427 26.4756C72.8959 26.719 72.8204 26.9979 72.8244 27.2812C72.8225 27.575 72.9085 27.8628 73.0718 28.1084C73.2559 28.3612 73.508 28.558 73.7994 28.6766C74.1333 28.8151 74.4925 28.8836 74.8545 28.878C75.2659 28.8942 75.6745 28.805 76.0406 28.619C76.2509 28.4998 76.4264 28.3289 76.55 28.1227V28.7773H77.736V25.6916C77.7633 25.3779 77.7207 25.0621 77.6113 24.7664C77.502 24.4707 77.3285 24.2022 77.103 23.9798C76.5947 23.5795 75.9544 23.3796 75.3057 23.4188ZM75.9606 27.7343C75.7074 27.8747 75.4213 27.9467 75.131 27.9429C74.8731 27.953 74.6185 27.8825 74.4034 27.7415C74.3179 27.683 74.2485 27.6044 74.2015 27.5127C74.1545 27.421 74.1314 27.3192 74.1341 27.2165C74.1304 27.1201 74.1487 27.024 74.1878 26.9356C74.2268 26.8472 74.2856 26.7686 74.3597 26.7058C74.6126 26.5394 74.9163 26.4657 75.2184 26.4972H76.5281V27.1158C76.4271 27.3939 76.2247 27.6247 75.9606 27.7631V27.7343Z" fill="#31AEE8"/>
<path d="M79.7445 25.5406C79.7445 25.8139 79.7445 26.0872 79.6935 26.3605C79.6802 26.6036 79.6412 26.8447 79.5771 27.0798C79.5304 27.2676 79.4408 27.4422 79.3152 27.5905C79.2533 27.6562 79.1776 27.7077 79.0933 27.7413C79.009 27.7749 78.9183 27.7897 78.8276 27.7847H78.7185H78.5875L78.5293 28.7772C78.6491 28.8097 78.7706 28.8361 78.8931 28.8564C79.002 28.8664 79.1117 28.8664 79.2206 28.8564C79.5044 28.867 79.7829 28.7778 80.0064 28.6046C80.2296 28.411 80.3977 28.163 80.494 27.8854C80.6247 27.5473 80.7127 27.1946 80.7559 26.8352C80.8069 26.4325 80.8432 25.9937 80.8651 25.5334L80.916 24.4689H82.9534V28.7772H84.2123V23.4907H79.8464L79.7445 25.5406Z" fill="#31AEE8"/>
<path d="M86.1627 23.9798C85.9373 24.1442 85.7577 24.3624 85.6407 24.6139C85.5236 24.8654 85.4729 25.1422 85.4932 25.4183C85.48 25.6745 85.5309 25.9299 85.6413 26.1619C85.7517 26.394 85.9183 26.5956 86.1263 26.749C86.302 26.8731 86.4959 26.9701 86.7011 27.0367L85.4277 28.7773H86.7812L87.8727 27.1733H89.328V28.7773H90.4558V23.4907H87.9964C87.3474 23.4503 86.703 23.6222 86.1627 23.9798ZM89.2989 24.5336V26.339H87.96C87.1741 26.339 86.7812 26.0441 86.7812 25.4543C86.765 25.3178 86.7854 25.1795 86.8403 25.0533C86.8952 24.927 86.9827 24.8173 87.0941 24.735C87.3668 24.577 87.6807 24.5019 87.9964 24.5193L89.2989 24.5336Z" fill="#31AEE8"/>
<path d="M97.2079 23.4907H95.9491V27.7415H93.3805V23.4907H92.1289V28.806H95.9491H96.8441V30H98.0156V27.7415H97.2079V23.4907Z" fill="#31AEE8"/>
<path d="M100.402 23.4907H99.1504V28.8132H100.402V23.4907Z" fill="#31AEE8"/>
<path d="M99.7765 21.1172C99.67 21.1104 99.5633 21.1269 99.4639 21.1654C99.3646 21.2039 99.275 21.2636 99.2016 21.3402C99.1294 21.4064 99.0714 21.4865 99.0314 21.5755C98.9914 21.6646 98.9701 21.7607 98.9688 21.8582C98.9681 21.958 98.9884 22.0569 99.0285 22.1486C99.0686 22.2402 99.1276 22.3226 99.2016 22.3905C99.275 22.4671 99.3646 22.5268 99.4639 22.5653C99.5633 22.6039 99.67 22.6203 99.7765 22.6136C99.8849 22.6182 99.9932 22.6009 100.095 22.5625C100.196 22.5241 100.288 22.4656 100.366 22.3905C100.437 22.3182 100.493 22.2326 100.53 22.1388C100.568 22.0449 100.586 21.9447 100.584 21.8438C100.587 21.7463 100.569 21.6494 100.53 21.5598C100.491 21.4703 100.432 21.3904 100.359 21.3258C100.199 21.1846 99.9905 21.1098 99.7765 21.1172Z" fill="#31AEE8"/>
<path d="M104.703 22.8653C105.155 22.8927 105.601 22.7601 105.962 22.4912C106.112 22.3519 106.229 22.1817 106.304 21.9927C106.38 21.8036 106.412 21.6005 106.399 21.3977H105.555C105.556 21.5037 105.536 21.6088 105.495 21.7066C105.453 21.8044 105.392 21.8927 105.315 21.966C105.143 22.1108 104.922 22.1854 104.696 22.1747C104.588 22.181 104.479 22.1658 104.376 22.13C104.274 22.0941 104.18 22.0384 104.099 21.966C104.024 21.8914 103.965 21.8027 103.925 21.7051C103.885 21.6075 103.865 21.503 103.867 21.3977H103.03C103.018 21.601 103.051 21.8045 103.128 21.9936C103.205 22.1826 103.323 22.3526 103.474 22.4912C103.825 22.7581 104.261 22.8909 104.703 22.8653Z" fill="#31AEE8"/>
<path d="M106.325 23.4907L103.363 27.0079V23.4907H102.119V28.806H103.276L106.23 25.296V28.806H107.475V23.4907H106.325Z" fill="#31AEE8"/>
<path d="M108.239 8.35751C107.772 8.35751 107.325 8.5409 106.994 8.86733C106.664 9.19375 106.479 9.63649 106.479 10.0981C106.479 10.5598 106.664 11.0025 106.994 11.3289C107.325 11.6553 107.772 11.8387 108.239 11.8387C108.706 11.8387 109.154 11.6553 109.485 11.3289C109.815 11.0025 110 10.5598 110 10.0981C110 9.63649 109.815 9.19375 109.485 8.86733C109.154 8.5409 108.706 8.35751 108.239 8.35751ZM108.239 11.5654C107.853 11.5654 107.483 11.4139 107.21 11.1441C106.937 10.8743 106.784 10.5084 106.784 10.1269C106.797 9.74937 106.954 9.39073 107.224 9.12363C107.495 8.85653 107.858 8.70094 108.239 8.68837C108.633 8.68837 109.011 8.84296 109.289 9.11813C109.567 9.3933 109.724 9.76652 109.724 10.1557C109.724 10.5448 109.567 10.918 109.289 11.1932C109.011 11.4684 108.633 11.623 108.239 11.623V11.5654Z" fill="#31AEE8"/>
<path d="M108.676 10.3717C108.623 10.3152 108.562 10.2667 108.494 10.2278C108.627 10.2137 108.75 10.1553 108.844 10.0624C108.892 10.0189 108.93 9.96549 108.956 9.90579C108.981 9.84609 108.992 9.78163 108.989 9.71703C108.997 9.61379 108.966 9.51145 108.902 9.42926C108.882 9.38896 108.853 9.35336 108.818 9.32482C108.783 9.29629 108.742 9.27549 108.698 9.26379C108.563 9.21675 108.419 9.19956 108.276 9.21343H108.218H107.49V11.012H107.854V10.2278H107.927C107.987 10.2164 108.049 10.2164 108.109 10.2278C108.133 10.2269 108.157 10.2343 108.177 10.2486C108.197 10.263 108.211 10.2835 108.218 10.307V10.3573C108.302 10.4359 108.37 10.5284 108.422 10.6307L108.676 11.012H109.149L108.909 10.6451C108.851 10.5394 108.772 10.4464 108.676 10.3717ZM108.218 9.99041V9.94005H107.854V9.48681H108.203V9.52278H108.422C108.477 9.53088 108.528 9.55608 108.567 9.59473C108.59 9.61354 108.608 9.63815 108.618 9.66599C108.628 9.69383 108.631 9.72388 108.625 9.753C108.636 9.80281 108.636 9.85426 108.625 9.90408C108.625 9.90408 108.574 9.97602 108.516 9.97602C108.418 9.99653 108.317 10.0014 108.218 9.99041Z" fill="#31AEE8"/>
<path d="M24.6389 22.8434L18.6067 16.442C18.4248 16.2482 18.3196 15.9962 18.3103 15.7321C18.3009 15.4679 18.388 15.2093 18.5557 15.0034C19.247 14.1187 20.1493 13.3348 20.8478 12.3925C21.8311 11.0713 22.3429 9.46492 22.3032 7.82522C22.3013 6.64837 22.0292 5.4873 21.5074 4.42951C20.9855 3.37173 20.2276 2.44484 19.2907 1.7187C18.0885 0.796819 16.6543 0.217307 15.143 0.0428199C14.8883 0.0428199 14.6264 0.0428199 14.3717 0.0428199H7.27707C6.62757 0.0370617 5.98342 0.159266 5.38223 0.402299C4.78104 0.645331 4.23485 1.00432 3.77557 1.4583C3.31629 1.91229 2.95311 2.45217 2.70724 3.04643C2.46137 3.64068 2.33774 4.2774 2.34356 4.91941V23.239C2.32234 23.7711 2.46096 24.2976 2.74196 24.752C3.02296 25.2064 3.43376 25.5684 3.92258 25.7923C4.33475 25.9831 4.78452 26.0813 5.23963 26.0801H10.617C10.8822 26.0867 11.1461 26.0412 11.3934 25.9462C11.6406 25.8511 11.8663 25.7084 12.0572 25.5264C12.2482 25.3443 12.4006 25.1266 12.5056 24.8857C12.6107 24.6449 12.6662 24.3859 12.669 24.1237V22.7499H14.168V23.5483H15.1576H16.169V22.6204C16.1195 22.0794 15.8585 21.5788 15.4414 21.225C15.3613 21.1531 15.2303 21.074 15.1285 21.0021C14.7691 20.8107 14.365 20.7164 13.9569 20.7288H13.826V20.4554H14.2844C14.348 20.4574 14.4114 20.4465 14.4705 20.4234C14.5297 20.4002 14.5835 20.3653 14.6285 20.3208C14.6735 20.2764 14.7088 20.2232 14.7322 20.1647C14.7556 20.1062 14.7667 20.0436 14.7646 19.9807C14.7647 19.9194 14.7522 19.8586 14.7278 19.8022C14.7034 19.7458 14.6677 19.6948 14.6228 19.6524C14.5778 19.6101 14.5247 19.5771 14.4665 19.5557C14.4084 19.5342 14.3464 19.5247 14.2844 19.5276H12.5235C12.4615 19.5247 12.3995 19.5342 12.3413 19.5557C12.2832 19.5771 12.23 19.6101 12.1851 19.6524C12.1402 19.6948 12.1045 19.7458 12.0801 19.8022C12.0557 19.8586 12.0431 19.9194 12.0432 19.9807C12.0412 20.0436 12.0522 20.1062 12.0757 20.1647C12.0991 20.2232 12.1344 20.2764 12.1794 20.3208C12.2244 20.3653 12.2781 20.4002 12.3373 20.4234C12.3965 20.4465 12.4599 20.4574 12.5235 20.4554H12.9819V20.7288C12.3972 20.6861 11.8163 20.852 11.3447 21.1963C11.1302 21.3716 10.9572 21.5913 10.8377 21.8398C10.7183 22.0883 10.6554 22.3597 10.6534 22.6348V24.1237H5.22508C5.10632 24.1246 4.98855 24.1022 4.87864 24.0577C4.76873 24.0132 4.66888 23.9476 4.5849 23.8646C4.50092 23.7816 4.4345 23.6829 4.38949 23.5742C4.34449 23.4656 4.32182 23.3492 4.32279 23.2318V4.89783C4.32279 4.13479 4.62944 3.403 5.17529 2.86345C5.72114 2.3239 6.46146 2.02079 7.23341 2.02079H14.2917C14.5675 2.01648 14.8431 2.04058 15.1139 2.09271C15.7635 2.16742 16.3957 2.34979 16.984 2.63216C17.3575 2.82352 17.713 3.04737 18.0464 3.30107C18.7071 3.82258 19.2481 4.47712 19.6332 5.22118C20.0184 5.96525 20.239 6.78182 20.2803 7.61663C20.3047 8.78496 20.0026 9.93729 19.4071 10.9468C18.6358 11.9466 17.7917 12.8672 16.984 13.8239C16.9438 13.8559 16.9073 13.8921 16.8748 13.9317C16.4837 14.4691 16.2825 15.1188 16.3022 15.7805C16.3219 16.4422 16.5615 17.0791 16.984 17.5928L20.0401 20.8654L23.0817 24.1237C23.2576 24.3271 23.3705 24.5762 23.4071 24.8414C23.4437 25.1065 23.4024 25.3764 23.2881 25.619C23.1739 25.8615 22.9915 26.0665 22.7626 26.2095C22.5338 26.3524 22.2682 26.4274 21.9975 26.4253H4.99951C4.20294 26.3857 3.45086 26.0503 2.89368 25.4862C2.33649 24.9221 2.01528 24.1709 1.99429 23.3828V4.91941C1.99895 3.84886 2.33366 2.80516 2.95379 1.92746C3.57392 1.04977 4.44999 0.379786 5.46521 0.00685687C4.78236 -0.0280326 4.09925 0.0704686 3.45494 0.296728C2.81063 0.522987 2.21775 0.872567 1.71022 1.32548C1.20269 1.77839 0.79046 2.32574 0.497094 2.93625C0.203728 3.54675 0.0349847 4.20843 0.000512868 4.88344V23.3684C-0.00918305 24.037 0.11869 24.7005 0.376368 25.3188C0.634046 25.937 1.01615 26.497 1.49948 26.9647C2.44686 27.8899 3.726 28.407 5.05772 28.4033H22.4269C23.1982 28.3244 23.9178 27.9827 24.4622 27.4368C25.0065 26.8908 25.3417 26.1747 25.4102 25.4111V24.6487C25.3358 23.9857 25.0678 23.3585 24.6389 22.8434Z" fill="#31AEE8"/>
<path d="M15.9295 25.3036C15.8015 24.7665 15.5359 24.271 15.1582 23.8647C14.7748 24.267 14.5084 24.7641 14.3869 25.3036C14.3849 25.4049 14.4034 25.5057 14.4413 25.5999C14.4792 25.694 14.5357 25.7798 14.6076 25.8522C14.6794 25.9245 14.7651 25.982 14.8596 26.0212C14.9541 26.0604 15.0556 26.0806 15.1582 26.0806C15.3641 26.0768 15.5602 25.9933 15.7045 25.848C15.8487 25.7027 15.9295 25.5072 15.9295 25.3036Z" fill="#31AEE8"/>
</svg>
