<svg width="48" height="48" viewBox="0 0 48 48" fill="none" xmlns="http://www.w3.org/2000/svg">
<path d="M24.0003 6L34.3943 22C35.4466 23.824 36.0004 25.8929 36 27.9987C35.9996 30.1045 35.4451 32.1731 34.3922 33.9968C33.3392 35.8205 31.8249 37.3349 30.0014 38.3881C28.1779 39.4412 26.1093 39.996 24.0035 39.9966C21.8977 39.9972 19.8288 39.4437 18.0046 38.3916C16.1804 37.3395 14.6653 35.8259 13.6113 34.0028C12.5573 32.1797 12.0016 30.1114 12 28.0056C11.9984 25.8998 12.551 23.8306 13.6023 22.006L24.0003 6ZM24.0003 6L24 40M24 24.0001L31.088 16.9121M24 34.5999L35.116 23.4839" stroke="#F34040" stroke-width="4" stroke-linecap="round" stroke-linejoin="round"/>
</svg>
