<svg width="19" height="15" viewBox="0 0 19 15" fill="none" xmlns="http://www.w3.org/2000/svg">
<path fill-rule="evenodd" clip-rule="evenodd" d="M1.42871 2.64285C0.878711 2.64285 0.428711 2.19285 0.428711 1.64285C0.428711 1.09285 0.878711 0.642853 1.42871 0.642853H17.4287C17.9787 0.642853 18.4287 1.09285 18.4287 1.64285C18.4287 2.19285 17.9787 2.64285 17.4287 2.64285H1.42871ZM1.42871 8.64285H17.4287C17.9787 8.64285 18.4287 8.19285 18.4287 7.64285C18.4287 7.09285 17.9787 6.64285 17.4287 6.64285H1.42871C0.878711 6.64285 0.428711 7.09285 0.428711 7.64285C0.428711 8.19285 0.878711 8.64285 1.42871 8.64285ZM1.42871 14.6429H17.4287C17.9787 14.6429 18.4287 14.1929 18.4287 13.6429C18.4287 13.0929 17.9787 12.6429 17.4287 12.6429H1.42871C0.878711 12.6429 0.428711 13.0929 0.428711 13.6429C0.428711 14.1929 0.878711 14.6429 1.42871 14.6429Z" fill="#18181B"/>
</svg>
