<svg width="56" height="56" viewBox="0 0 56 56" fill="none" xmlns="http://www.w3.org/2000/svg">
<path d="M46.6667 25.6667L28 7L7 28H11.6667V44.3333C11.6667 45.571 12.1583 46.758 13.0335 47.6332C13.9087 48.5083 15.0957 49 16.3333 49H28M21 49V35C21 33.7623 21.4917 32.5753 22.3668 31.7002C23.242 30.825 24.429 30.3333 25.6667 30.3333H30.3333C31.0917 30.3333 31.8057 30.513 32.438 30.835M37.3333 51.3333C37.3333 51.3333 37.3333 46.6667 44.3333 42M44.3333 49C42.4768 49 40.6963 48.2625 39.3836 46.9498C38.0708 45.637 37.3333 43.8565 37.3333 42C37.3333 40.1435 38.0708 38.363 39.3836 37.0503C40.6963 35.7375 42.4768 35 44.3333 35H51.3333V42C51.3333 43.8565 50.5958 45.637 49.2831 46.9498C47.9703 48.2625 46.1899 49 44.3333 49Z" stroke="#43974E" stroke-width="4.66667" stroke-linecap="round" stroke-linejoin="round"/>
</svg>
