<svg width="48" height="48" viewBox="0 0 48 48" fill="none" xmlns="http://www.w3.org/2000/svg">
<path d="M6 23.9999C6 28.7738 7.89642 33.3521 11.2721 36.7278C14.6477 40.1035 19.2261 41.9999 24 41.9999C28.7739 41.9999 33.3523 40.1035 36.7279 36.7278C40.1036 33.3521 42 28.7738 42 23.9999C42 19.226 40.1036 14.6476 36.7279 11.272C33.3523 7.8963 28.7739 5.99988 24 5.99988M34 23.9999C34 22.0221 33.4135 20.0887 32.3147 18.4442C31.2159 16.7997 29.6541 15.518 27.8268 14.7611C25.9996 14.0042 23.9889 13.8062 22.0491 14.192C20.1093 14.5779 18.3275 15.5303 16.9289 16.9288C15.5304 18.3273 14.578 20.1092 14.1922 22.049C13.8063 23.9888 14.0043 25.9995 14.7612 27.8267C15.5181 29.654 16.7998 31.2158 18.4443 32.3146C20.0888 33.4134 22.0222 33.9999 24 33.9999" stroke="#F34040" stroke-width="4" stroke-linecap="round" stroke-linejoin="round"/>
<path d="M34 24.0001C34 22.0223 33.4135 20.0889 32.3147 18.4444C31.2159 16.7999 29.6541 15.5181 27.8268 14.7613C25.9996 14.0044 23.9889 13.8064 22.0491 14.1922C20.1093 14.5781 18.3275 15.5305 16.9289 16.929C15.5304 18.3275 14.578 20.1094 14.1922 22.0492C13.8063 23.989 14.0043 25.9996 14.7612 27.8269C15.5181 29.6542 16.7998 31.2159 18.4443 32.3148C20.0888 33.4136 22.0222 34.0001 24 34.0001" stroke="#40B3F3" stroke-width="4" stroke-linecap="round" stroke-linejoin="round"/>
</svg>
