<svg width="48" height="48" viewBox="0 0 48 48" fill="none" xmlns="http://www.w3.org/2000/svg">
<path d="M23.9997 6C28.6713 10.1332 34.7686 12.2851 40.9997 12C41.9069 15.086 42.1844 18.3229 41.8159 21.5184C41.4474 24.7138 40.4403 27.8025 38.8545 30.6011C37.2686 33.3996 35.1364 35.8508 32.5846 37.809C30.0327 39.7672 27.1132 41.1924 23.9997 42C20.8861 41.1924 17.9666 39.7672 15.4148 37.809C12.8629 35.8508 10.7307 33.3996 9.14486 30.6011C7.55903 27.8025 6.55194 24.7138 6.18342 21.5184C5.8149 18.3229 6.09248 15.086 6.99967 12C13.2307 12.2851 19.328 10.1332 23.9997 6Z" stroke="#40B3F3" stroke-width="4" stroke-linecap="round" stroke-linejoin="round"/>
</svg>
