<svg width="48" height="48" viewBox="0 0 48 48" fill="none" xmlns="http://www.w3.org/2000/svg">
<path d="M19.9996 8L23.9996 10L27.9996 8M23.9996 4V17L29.9996 20.44M35.8556 12.5361L36.1236 17.0001L39.8556 19.4641M41.3196 14L30.0616 20.5L30.0816 27.416M39.8556 28.5361L36.1236 31.0001L35.8556 35.4641M41.3197 34L30.0617 27.5L24.0817 30.976M27.9996 40L23.9996 38L19.9996 40M23.9996 44.0001V31.0001L17.9996 27.5601M12.1437 35.4641L11.8757 31.0001L8.14368 28.5361M6.67969 34L17.9377 27.5L17.9177 20.584M8.14368 19.4641L11.8757 17.0001L12.1437 12.5361M6.67969 14L17.9377 20.5L23.9177 17.024" stroke="#40B3F3" stroke-width="4" stroke-linecap="round" stroke-linejoin="round"/>
</svg>
