<svg width="25" height="24" viewBox="0 0 25 24" fill="none" xmlns="http://www.w3.org/2000/svg">
<rect width="24" height="24" transform="translate(0.5)" fill="#FAFAFA"/>
<path d="M12.5 2L12.824 2.001L13.142 2.005L13.758 2.022L14.057 2.035L14.636 2.069L15.189 2.115C19.974 2.579 21.921 4.526 22.385 9.311L22.431 9.864L22.465 10.443C22.47 10.541 22.475 10.641 22.478 10.742L22.495 11.358L22.5 12L22.495 12.642L22.478 13.258L22.465 13.557L22.431 14.136L22.385 14.689C21.921 19.474 19.974 21.421 15.189 21.885L14.636 21.931L14.057 21.965C13.959 21.97 13.859 21.975 13.758 21.978L13.142 21.995L12.5 22L11.858 21.995L11.242 21.978L10.943 21.965L10.364 21.931L9.811 21.885C5.026 21.421 3.079 19.474 2.615 14.689L2.569 14.136L2.535 13.557C2.53014 13.4574 2.5258 13.3577 2.522 13.258L2.505 12.642C2.502 12.432 2.5 12.218 2.5 12L2.501 11.676L2.505 11.358L2.522 10.742L2.535 10.443L2.569 9.864L2.615 9.311C3.079 4.526 5.026 2.579 9.811 2.115L10.364 2.069L10.943 2.035C11.041 2.03 11.141 2.025 11.242 2.022L11.858 2.005C12.068 2.002 12.282 2 12.5 2ZM12.5 8C12.2348 8 11.9804 8.10536 11.7929 8.29289C11.6054 8.48043 11.5 8.73478 11.5 9V11H9.5L9.383 11.007C9.1299 11.0371 8.89785 11.1627 8.73426 11.3582C8.57067 11.5536 8.48789 11.8042 8.50283 12.0586C8.51776 12.313 8.6293 12.5522 8.81463 12.7272C8.99997 12.9021 9.24512 12.9997 9.5 13H11.5V15L11.507 15.117C11.5371 15.3701 11.6627 15.6021 11.8582 15.7657C12.0536 15.9293 12.3042 16.0121 12.5586 15.9972C12.813 15.9822 13.0522 15.8707 13.2272 15.6854C13.4021 15.5 13.4997 15.2549 13.5 15V13H15.5L15.617 12.993C15.8701 12.9629 16.1021 12.8373 16.2657 12.6418C16.4293 12.4464 16.5121 12.1958 16.4972 11.9414C16.4822 11.687 16.3707 11.4478 16.1854 11.2728C16 11.0979 15.7549 11.0003 15.5 11H13.5V9L13.493 8.883C13.4643 8.63975 13.3474 8.41547 13.1644 8.25272C12.9813 8.08996 12.7449 8.00003 12.5 8Z" fill="black"/>
</svg>
