<svg width="48" height="48" viewBox="0 0 48 48" fill="none" xmlns="http://www.w3.org/2000/svg">
<path d="M12.686 35.314L9.85797 38.142M12.686 12.6859L9.85797 9.85791M35.314 12.6859L38.142 9.85791M35.314 35.314L38.142 38.142M8 24H4M24 8V4M40 24H44M24 40V44M29.656 29.6562C30.4201 28.9182 31.0296 28.0354 31.4488 27.0594C31.8681 26.0834 32.0888 25.0336 32.098 23.9714C32.1073 22.9091 31.9048 21.8557 31.5026 20.8725C31.1003 19.8894 30.5063 18.9961 29.7552 18.245C29.004 17.4939 28.1108 16.8998 27.1277 16.4976C26.1445 16.0953 25.091 15.8929 24.0288 15.9022C22.9666 15.9114 21.9168 16.1321 20.9408 16.5514C19.9648 16.9706 19.082 17.5801 18.344 18.3442C16.8868 19.853 16.0804 21.8738 16.0986 23.9714C16.1169 26.0689 16.9582 28.0754 18.4415 29.5587C19.9247 31.042 21.9312 31.8833 24.0288 31.9016C26.1264 31.9198 28.1472 31.1134 29.656 29.6562Z" stroke="#F39640" stroke-width="4" stroke-linecap="round" stroke-linejoin="round"/>
</svg>
