<svg width="48" height="48" viewBox="0 0 48 48" fill="none" xmlns="http://www.w3.org/2000/svg">
<path d="M40 18C40 16.4087 39.3679 14.8826 38.2426 13.7574C37.1174 12.6321 35.5913 12 34 12H32C30.4087 12 28.8826 12.6321 27.7574 13.7574C26.6321 14.8826 26 16.4087 26 18V30C26 31.5913 26.6321 33.1174 27.7574 34.2426C28.8826 35.3679 30.4087 36 32 36H34C35.5913 36 37.1174 35.3679 38.2426 34.2426C39.3679 33.1174 40 31.5913 40 30M8 16C8 17.0609 8.42143 18.0783 9.17157 18.8284C9.92172 19.5786 10.9391 20 12 20C13.0609 20 14.0783 19.5786 14.8284 18.8284C15.5786 18.0783 16 17.0609 16 16C16 14.9391 15.5786 13.9217 14.8284 13.1716C14.0783 12.4214 13.0609 12 12 12C10.9391 12 9.92172 12.4214 9.17157 13.1716C8.42143 13.9217 8 14.9391 8 16Z" stroke="#F34040" stroke-width="4" stroke-linecap="round" stroke-linejoin="round"/>
</svg>
