<svg width="24" height="25" viewBox="0 0 24 25" fill="none" xmlns="http://www.w3.org/2000/svg">
<path d="M16 5.09424L19 8.09424L17 9.09424L21 13.0942L18 14.0942L22 18.0942H13M15 21.0942V18.0942M8 13.0942L6 11.0942M8 12.0942L10 10.0942M8 21.0942V8.09424M5.82395 16.0942C5.38642 16.0686 4.95982 15.9474 4.57415 15.7392C4.18849 15.531 3.85312 15.2408 3.59165 14.8891C3.33018 14.5373 3.14896 14.1326 3.06073 13.7033C2.97249 13.274 2.9794 12.8305 3.08095 12.4042C2.71842 12.1023 2.4322 11.7191 2.24554 11.2859C2.05888 10.8526 1.97703 10.3814 2.00665 9.91055C2.03627 9.43971 2.17651 8.98248 2.41599 8.57601C2.65548 8.16954 2.98745 7.82528 3.38495 7.57119C3.03632 6.95184 2.9189 6.22884 3.05361 5.53099C3.18832 4.83315 3.56641 4.2058 4.12051 3.76072C4.67462 3.31563 5.36874 3.08173 6.07922 3.10068C6.78969 3.11963 7.47036 3.3902 7.99995 3.86419C8.52966 3.39095 9.21011 3.12102 9.92018 3.10244C10.6303 3.08385 11.3239 3.31783 11.8776 3.76271C12.4314 4.2076 12.8093 4.83453 12.9441 5.53194C13.0789 6.22934 12.962 6.95196 12.6139 7.57119C13.0115 7.8252 13.3436 8.16939 13.5831 8.57582C13.8227 8.98225 13.9631 9.43945 13.9928 9.9103C14.0225 10.3811 13.9407 10.8524 13.7542 11.2857C13.5676 11.719 13.2814 12.1022 12.9189 12.4042C13.0239 12.845 13.0277 13.3038 12.9299 13.7463C12.8322 14.1887 12.6355 14.6033 12.3546 14.9589C12.0737 15.3144 11.716 15.6017 11.3081 15.7992C10.9003 15.9967 10.4531 16.0993 9.99995 16.0992H5.99995L5.82395 16.0942Z" stroke="white" stroke-width="2" stroke-linecap="round" stroke-linejoin="round"/>
</svg>
