<svg width="48" height="48" viewBox="0 0 48 48" fill="none" xmlns="http://www.w3.org/2000/svg">
<path d="M30 16C31.242 16.9315 32.25 18.1393 32.9443 19.5279C33.6385 20.9164 34 22.4475 34 24C34 25.5525 33.6385 27.0836 32.9443 28.4721C32.25 29.8607 31.242 31.0685 30 32M35.3999 10C37.4878 11.6873 39.1719 13.8203 40.3288 16.2426C41.4857 18.665 42.0862 21.3155 42.0862 24C42.0862 26.6845 41.4857 29.335 40.3288 31.7574C39.1719 34.1797 37.4878 36.3127 35.3999 38M12 29.9999H8C7.46957 29.9999 6.96086 29.7892 6.58579 29.4142C6.21071 29.0391 6 28.5304 6 27.9999V19.9999C6 19.4695 6.21071 18.9608 6.58579 18.5857C6.96086 18.2107 7.46957 17.9999 8 17.9999H12L19 8.99995C19.1748 8.66041 19.4653 8.39459 19.819 8.25053C20.1727 8.10647 20.5662 8.09367 20.9285 8.21443C21.2908 8.3352 21.598 8.58157 21.7945 8.90903C21.991 9.23648 22.0639 9.62343 22 9.99995V37.9999C22.0639 38.3765 21.991 38.7634 21.7945 39.0909C21.598 39.4183 21.2908 39.6647 20.9285 39.7855C20.5662 39.9062 20.1727 39.8934 19.819 39.7494C19.4653 39.6053 19.1748 39.3395 19 38.9999L12 29.9999Z" stroke="#F34040" stroke-width="4" stroke-linecap="round" stroke-linejoin="round"/>
</svg>
