<svg width="48" height="48" viewBox="0 0 48 48" fill="none" xmlns="http://www.w3.org/2000/svg">
<path d="M34 16V10C34 9.46957 33.7893 8.96086 33.4142 8.58579C33.0391 8.21071 32.5304 8 32 8H12C10.9391 8 9.92172 8.42143 9.17157 9.17157C8.42143 9.92172 8 10.9391 8 12M8 12C8 13.0609 8.42143 14.0783 9.17157 14.8284C9.92172 15.5786 10.9391 16 12 16H36C36.5304 16 37.0391 16.2107 37.4142 16.5858C37.7893 16.9609 38 17.4696 38 18V24M8 12V36C8 37.0609 8.42143 38.0783 9.17157 38.8284C9.92172 39.5786 10.9391 40 12 40H36C36.5304 40 37.0391 39.7893 37.4142 39.4142C37.7893 39.0391 38 38.5304 38 38V32M40 24V32H32C30.9391 32 29.9217 31.5786 29.1716 30.8284C28.4214 30.0783 28 29.0609 28 28C28 26.9391 28.4214 25.9217 29.1716 25.1716C29.9217 24.4214 30.9391 24 32 24H40Z" stroke="#43974E" stroke-width="4" stroke-linecap="round" stroke-linejoin="round"/>
</svg>
